<svg xmlns="http://www.w3.org/2000/svg" width="960" height="640" viewBox="0 0 960 640" role="img" aria-labelledby="title desc">
  <title id="title">Lantern landing</title>
  <desc id="desc">Top-down salt-worn lighthouse landing, with pale stone paving, shallow tidal washes, mooring ropes, and warm pools of lantern light. The center is open for play.</desc>
  <defs>
    <linearGradient id="floor" x2="1" y2="1"><stop stop-color="#425658"/><stop offset=".52" stop-color="#667573"/><stop offset="1" stop-color="#364f54"/></linearGradient>
    <radialGradient id="glow"><stop stop-color="#fbd184" stop-opacity=".44"/><stop offset=".4" stop-color="#d8aa63" stop-opacity=".15"/><stop offset="1" stop-color="#dda657" stop-opacity="0"/></radialGradient>
    <radialGradient id="shade"><stop offset=".4" stop-color="#12272d" stop-opacity="0"/><stop offset="1" stop-color="#0c242c" stop-opacity=".55"/></radialGradient>
    <pattern id="stone" width="240" height="144" patternUnits="userSpaceOnUse"><path d="M0 0H240M0 72H240M120 0V72M44 72V144M202 72V144" fill="none" stroke="#182f36" stroke-opacity=".19" stroke-width="3"/><path d="M3 4H117M124 4H236M49 77H197" stroke="#b7b8a3" stroke-opacity=".1" stroke-width="2"/></pattern>
    <pattern id="fleck" width="91" height="67" patternUnits="userSpaceOnUse"><path d="m17 22 12-2m36 27 8 1m-52 14 4 1" stroke="#bcc3b0" stroke-opacity=".12" stroke-linecap="round"/><circle cx="81" cy="13" r="1.5" fill="#213d42" opacity=".2"/></pattern>
    <g id="lantern"><ellipse cy="8" rx="15" ry="9" fill="#10272d" opacity=".55"/><rect x="-11" y="-13" width="22" height="26" rx="4" fill="#323e3a" stroke="#aa8b52" stroke-width="2"/><rect x="-6" y="-9" width="12" height="18" rx="2" fill="#eac584"/><path d="M-8-14Q0-25 8-14M0-9V9" fill="none" stroke="#ad8b50" stroke-width="2"/></g>
  </defs>
  <path fill="url(#floor)" d="M0 0h960v640H0z"/><path fill="url(#stone)" d="M0 0h960v640H0z"/><path fill="url(#fleck)" d="M0 0h960v640H0z"/>
  <path d="M0 0H960V25C811 3 773 40 631 24S343 17 198 36 53 31 0 46ZM0 640H960V608C772 629 763 590 563 616S226 603 0 620Z" fill="#2f6369" opacity=".42"/>
  <g fill="none" stroke="#9ec2b4" stroke-opacity=".22" stroke-width="2"><path d="M18 17c122 17 146-9 245-3m448 8c77 12 161-9 231-1M26 625c118-14 211 5 273-6m363 4c71-9 178 5 275-7"/><path d="m829 29 21 2m20-1 29-3M120 607l47 3"/></g>
  <g stroke="#a5a892" fill="none" opacity=".26"><circle cx="476" cy="326" r="103" stroke-width="2"/><circle cx="476" cy="326" r="91"/><path d="m476 241 13 68 57 17-57 15-13 70-14-70-55-15 55-17z" stroke-width="2"/><path d="m425 274 51 52 53 51m0-103-53 52-51 51"/></g>
  <g stroke="#262f2f" stroke-width="3"><path d="M26 93h36v42H26zM24 510h38v40H24zM896 88h36v44h-36zM898 513h35v43h-35z" fill="#6b6860"/><path d="M20 98h47v13H20zM18 515h50v13H18zM890 92h49v13h-49zM892 518h48v13h-48z" fill="#9a9480"/></g>
  <g fill="none" stroke="#b4a078" stroke-width="4" opacity=".75"><path d="M41 118C61 140 73 157 56 171S23 161 31 148 70 153 66 177 21 192 14 171"/><path d="M914 540c-25 9-50 28-33 46s44-3 28-13-42 0-39 21"/></g>
  <path d="m120 174 28 14-12 31 24 24m539 219 31 7 7 30m-350 51 13-18-4-16" fill="none" stroke="#1b3a40" stroke-width="2" opacity=".23"/>
  <path fill="url(#shade)" d="M0 0h960v640H0z"/>
  <ellipse cx="88" cy="70" rx="200" ry="157" fill="url(#glow)"/><ellipse cx="864" cy="566" rx="230" ry="171" fill="url(#glow)"/>
  <use href="#lantern" x="87" y="58"/><use href="#lantern" x="869" y="578"/>
  <path d="M0 0H960V640H0Z" fill="none" stroke="#132f36" stroke-width="8"/>
</svg>
